<?xml version="1.0" encoding="UTF-8" standalone="no"?>
<!DOCTYPE svg PUBLIC "-//W3C//DTD SVG 1.1//EN" "http://www.w3.org/Graphics/SVG/1.1/DTD/svg11.dtd">
<svg width="100%" height="100%" viewBox="0 0 2000 2000" version="1.1" xmlns="http://www.w3.org/2000/svg" xmlns:xlink="http://www.w3.org/1999/xlink" xml:space="preserve" xmlns:serif="http://www.serif.com/" style="fill-rule:evenodd;clip-rule:evenodd;stroke-linejoin:round;stroke-miterlimit:2;">
    <rect id="Artboard1" x="0" y="0" width="2000" height="2000" style="fill:none;"/>
    <g id="Artboard11" serif:id="Artboard1">
        <g transform="matrix(1.09995,0,0,1.09995,-24.1957,-139.579)">
            <circle cx="1022.77" cy="1607.37" r="105.089" style="fill:rgb(232,92,66);"/>
        </g>
        <g transform="matrix(1.10385,0,0,1.10385,-319.838,-213.358)">
            <circle cx="1022.77" cy="1607.37" r="105.089" style="fill:rgb(74,139,159);"/>
        </g>
        <g transform="matrix(0.866731,0,0,0.866731,217.679,-471.988)">
            <circle cx="1022.77" cy="1607.37" r="105.089" style="fill:rgb(74,139,159);"/>
        </g>
        <g transform="matrix(1.08773,0,0,1.08773,-524.609,-385.979)">
            <circle cx="1022.77" cy="1607.37" r="105.089" style="fill:rgb(232,92,66);"/>
        </g>
        <g transform="matrix(1.05001,0,0,1.05001,-606.114,-596.555)">
            <circle cx="1022.77" cy="1607.37" r="105.089" style="fill:rgb(74,139,159);"/>
        </g>
        <g transform="matrix(0.990778,0,0,0.990778,-529.11,-781.98)">
            <circle cx="1022.77" cy="1607.37" r="105.089" style="fill:rgb(232,92,66);"/>
        </g>
        <g transform="matrix(0.973337,0,0,0.973337,-383.813,-998.071)">
            <circle cx="1022.77" cy="1607.37" r="105.089" style="fill:rgb(74,139,159);"/>
        </g>
        <g transform="matrix(0.960282,0,0,0.960282,-162.162,-1134.79)">
            <circle cx="1022.77" cy="1607.37" r="105.089" style="fill:rgb(232,92,66);"/>
        </g>
        <g transform="matrix(0.886751,0,0,0.886751,129.215,-1061.09)">
            <circle cx="1022.77" cy="1607.37" r="105.089" style="fill:rgb(74,139,159);"/>
        </g>
        <g transform="matrix(0.868619,0,0,0.868619,354.792,-990.543)">
            <circle cx="1022.77" cy="1607.37" r="105.089" style="fill:rgb(232,92,66);"/>
        </g>
        <g transform="matrix(0.851143,0,0,0.851143,549.562,-831.575)">
            <circle cx="1022.77" cy="1607.37" r="105.089" style="fill:rgb(74,139,159);"/>
        </g>
        <g transform="matrix(0.851143,0,0,0.851143,664.052,-623.806)">
            <circle cx="1022.77" cy="1607.37" r="105.089" style="fill:rgb(232,92,66);"/>
        </g>
        <g transform="matrix(0.851143,0,0,0.851143,672.153,-407.82)">
            <circle cx="1022.77" cy="1607.37" r="105.089" style="fill:rgb(74,139,159);"/>
        </g>
        <g transform="matrix(0.790806,0,0,0.790806,640.886,-118.017)">
            <circle cx="1022.77" cy="1607.37" r="105.089" style="fill:rgb(232,92,66);"/>
        </g>
        <g transform="matrix(0.696829,0,0,0.696829,571.573,148.148)">
            <circle cx="1022.77" cy="1607.37" r="105.089" style="fill:rgb(74,139,159);"/>
        </g>
        <g transform="matrix(0.641258,0,0,0.641258,428.542,259.317)">
            <circle cx="1022.77" cy="1607.37" r="105.089" style="fill:rgb(232,92,66);"/>
        </g>
        <g transform="matrix(0.562547,0,0,0.562547,348.211,299.412)">
            <circle cx="1022.77" cy="1607.37" r="105.089" style="fill:rgb(74,139,159);"/>
        </g>
        <g transform="matrix(0.492713,0,0,0.492713,323.606,252.74)">
            <circle cx="1022.77" cy="1607.37" r="105.089" style="fill:rgb(232,92,66);"/>
        </g>
        <g transform="matrix(0.435346,0,0,0.435346,402.594,154.178)">
            <circle cx="1022.77" cy="1607.37" r="105.089" style="fill:rgb(74,139,159);"/>
        </g>
        <g transform="matrix(0.421772,0,0,0.421772,529.445,48.4204)">
            <circle cx="1022.77" cy="1607.37" r="105.089" style="fill:rgb(232,92,66);"/>
        </g>
    </g>
</svg>
